<mxfile host="app.diagrams.net" agent="Mozilla/5.0 (X11; Linux x86_64; rv:128.0) Gecko/20100101 Firefox/128.0" version="26.2.10">
  <diagram name="Page-1" id="sJFbLXoHJP4PsMLdg7bV">
    <mxGraphModel dx="4827" dy="4436" grid="1" gridSize="10" guides="1" tooltips="1" connect="1" arrows="1" fold="1" page="1" pageScale="1" pageWidth="827" pageHeight="1169" math="0" shadow="0">
      <root>
        <mxCell id="0" />
        <mxCell id="1" parent="0" />
        <mxCell id="J8AIYy-TsQjEeJiYVx7a-1" value="" style="verticalLabelPosition=bottom;sketch=0;html=1;fillColor=#A153A0;strokeColor=#ffffff;verticalAlign=top;align=center;points=[[0,0.5,0],[0.125,0.25,0],[0.25,0,0],[0.5,0,0],[0.75,0,0],[0.875,0.25,0],[1,0.5,0],[0.875,0.75,0],[0.75,1,0],[0.5,1,0],[0.125,0.75,0]];pointerEvents=1;shape=mxgraph.cisco_safe.compositeIcon;bgIcon=mxgraph.cisco_safe.design.blank_device;resIcon=mxgraph.cisco_safe.design.wide_area_application_engine_2;" vertex="1" parent="1">
          <mxGeometry x="389" y="230" width="50" height="45" as="geometry" />
        </mxCell>
        <mxCell id="J8AIYy-TsQjEeJiYVx7a-42" value="&lt;div align=&quot;left&quot;&gt;&lt;font style=&quot;font-size: 27px;&quot;&gt;&lt;font&gt;Subtitle&lt;/font&gt;&lt;/font&gt;&lt;br&gt;&lt;/div&gt;" style="text;html=1;align=left;verticalAlign=middle;whiteSpace=wrap;rounded=0;" vertex="1" parent="1">
          <mxGeometry x="460" y="630" width="330" height="29" as="geometry" />
        </mxCell>
        <mxCell id="J8AIYy-TsQjEeJiYVx7a-41" value="&lt;div align=&quot;left&quot;&gt;&lt;b&gt;&lt;font style=&quot;font-size: 40px;&quot;&gt;&lt;font&gt;Title&lt;/font&gt;&lt;/font&gt;&lt;/b&gt;&lt;/div&gt;" style="text;html=1;align=left;verticalAlign=middle;whiteSpace=wrap;rounded=0;" vertex="1" parent="1">
          <mxGeometry x="460" y="560" width="330" height="60" as="geometry" />
        </mxCell>
        <mxCell id="J8AIYy-TsQjEeJiYVx7a-12" value="" style="html=1;shadow=0;dashed=0;fillColor=#0085FC;strokeColor=none;fontSize=16;fontColor=#ffffff;align=left;spacing=15;" vertex="1" parent="1">
          <mxGeometry x="1310" y="-970" width="940" height="63.902439024390254" as="geometry" />
        </mxCell>
        <mxCell id="J8AIYy-TsQjEeJiYVx7a-13" value="" style="swimlane;shape=mxgraph.bootstrap.anchor;strokeColor=none;fillColor=none;fontColor=#0085FC;fontStyle=0;childLayout=stackLayout;horizontal=0;startSize=0;horizontalStack=1;resizeParent=1;resizeParentMax=0;resizeLast=0;collapsible=0;marginBottom=0;whiteSpace=wrap;html=1;resizeWidth=0;" vertex="1" parent="J8AIYy-TsQjEeJiYVx7a-12">
          <mxGeometry y="10.65040650406504" width="350" height="42.60162601626016" as="geometry" />
        </mxCell>
        <mxCell id="J8AIYy-TsQjEeJiYVx7a-14" value="Navbar" style="text;strokeColor=none;align=left;verticalAlign=middle;spacingLeft=15;spacingRight=10;points=[[0,0.5],[1,0.5]];portConstraint=eastwest;rotatable=0;whiteSpace=wrap;html=1;fillColor=none;fontColor=#ffffff;fontSize=16;" vertex="1" parent="J8AIYy-TsQjEeJiYVx7a-13">
          <mxGeometry width="80" height="42.60162601626016" as="geometry" />
        </mxCell>
        <mxCell id="J8AIYy-TsQjEeJiYVx7a-15" value="Home" style="text;strokeColor=none;align=center;verticalAlign=middle;spacingLeft=10;spacingRight=10;points=[[0,0.5],[1,0.5]];portConstraint=eastwest;rotatable=0;whiteSpace=wrap;html=1;fillColor=none;fontColor=#ffffff;fontSize=14;" vertex="1" parent="J8AIYy-TsQjEeJiYVx7a-13">
          <mxGeometry x="80" width="60" height="42.60162601626016" as="geometry" />
        </mxCell>
        <mxCell id="J8AIYy-TsQjEeJiYVx7a-16" value="Features" style="text;strokeColor=none;align=center;verticalAlign=middle;spacingLeft=10;spacingRight=10;points=[[0,0.5],[1,0.5]];portConstraint=eastwest;rotatable=0;whiteSpace=wrap;html=1;fillColor=none;fontColor=#79BFFD;fontSize=14;" vertex="1" parent="J8AIYy-TsQjEeJiYVx7a-13">
          <mxGeometry x="140" width="80" height="42.60162601626016" as="geometry" />
        </mxCell>
        <mxCell id="J8AIYy-TsQjEeJiYVx7a-17" value="Pricing" style="text;strokeColor=none;align=left;verticalAlign=middle;spacingLeft=5;spacingRight=10;points=[[0,0.5],[1,0.5]];portConstraint=eastwest;rotatable=0;whiteSpace=wrap;html=1;fillColor=none;fontColor=#79BFFD;fontSize=14;" vertex="1" parent="J8AIYy-TsQjEeJiYVx7a-13">
          <mxGeometry x="220" width="70" height="42.60162601626016" as="geometry" />
        </mxCell>
        <mxCell id="J8AIYy-TsQjEeJiYVx7a-18" value="About" style="text;strokeColor=none;align=center;verticalAlign=middle;spacingLeft=10;spacingRight=10;points=[[0,0.5],[1,0.5]];portConstraint=eastwest;rotatable=0;whiteSpace=wrap;html=1;fillColor=none;fontColor=#79BFFD;fontSize=14;" vertex="1" parent="J8AIYy-TsQjEeJiYVx7a-13">
          <mxGeometry x="290" width="60" height="42.60162601626016" as="geometry" />
        </mxCell>
        <mxCell id="J8AIYy-TsQjEeJiYVx7a-19" value="Search" style="html=1;shadow=0;dashed=0;shape=mxgraph.bootstrap.rrect;rSize=5;fontSize=14;fontColor=#ffffff;strokeColor=#ffffff;fillColor=none;" vertex="1" parent="J8AIYy-TsQjEeJiYVx7a-12">
          <mxGeometry x="1" width="70" height="40" relative="1" as="geometry">
            <mxPoint x="-80" y="10" as="offset" />
          </mxGeometry>
        </mxCell>
        <mxCell id="J8AIYy-TsQjEeJiYVx7a-20" value="Search" style="html=1;shadow=0;dashed=0;shape=mxgraph.bootstrap.rrect;rSize=5;fontSize=14;fontColor=#6C767D;strokeColor=#CED4DA;fillColor=#ffffff;align=left;spacing=10;" vertex="1" parent="J8AIYy-TsQjEeJiYVx7a-12">
          <mxGeometry x="1" width="180" height="40" relative="1" as="geometry">
            <mxPoint x="-270" y="10" as="offset" />
          </mxGeometry>
        </mxCell>
        <mxCell id="J8AIYy-TsQjEeJiYVx7a-25" value="" style="rounded=0;whiteSpace=wrap;html=1;strokeColor=none;gradientColor=none;gradientDirection=radial;" vertex="1" parent="1">
          <mxGeometry x="1310" y="-906.0975609756097" width="940" height="415.36585365853665" as="geometry" />
        </mxCell>
        <mxCell id="J8AIYy-TsQjEeJiYVx7a-26" value="Bouton" style="html=1;shadow=0;dashed=0;shape=mxgraph.bootstrap.rrect;rSize=5;strokeColor=none;strokeWidth=1;fillColor=#0085FC;fontColor=#FFFFFF;whiteSpace=wrap;align=center;verticalAlign=middle;spacingLeft=0;fontStyle=0;fontSize=16;spacing=5;" vertex="1" parent="1">
          <mxGeometry x="1733" y="-639.8373983739837" width="94.00000000000001" height="42.60162601626016" as="geometry" />
        </mxCell>
        <mxCell id="J8AIYy-TsQjEeJiYVx7a-28" value="&lt;b&gt;&lt;font style=&quot;font-size: 40px;&quot;&gt;&lt;font&gt;First thing we read&lt;/font&gt;&lt;font&gt;&lt;br&gt;&lt;/font&gt;&lt;/font&gt;&lt;/b&gt;" style="text;html=1;align=center;verticalAlign=middle;whiteSpace=wrap;rounded=0;" vertex="1" parent="1">
          <mxGeometry x="1378.7375" y="-780.4227642276422" width="802.525" height="63.902439024390254" as="geometry" />
        </mxCell>
        <mxCell id="J8AIYy-TsQjEeJiYVx7a-29" value="&lt;font style=&quot;font-size: 27px;&quot;&gt;&lt;font&gt;Second thing we read&lt;/font&gt;&lt;font&gt;&lt;font&gt;&lt;br&gt;&lt;/font&gt;&lt;/font&gt;&lt;/font&gt;" style="text;html=1;align=center;verticalAlign=middle;whiteSpace=wrap;rounded=0;" vertex="1" parent="1">
          <mxGeometry x="1378.7375" y="-708" width="802.525" height="30.886178861788622" as="geometry" />
        </mxCell>
        <mxCell id="J8AIYy-TsQjEeJiYVx7a-30" value="&lt;font style=&quot;font-size: 14px; color: light-dark(rgb(0, 0, 0), rgb(255, 255, 255));&quot;&gt;&lt;font style=&quot;background-color: light-dark(#ffffff, var(--ge-dark-color, #121212));&quot;&gt;THIRD THING WE READ&lt;/font&gt;&lt;/font&gt;&lt;font style=&quot;font-size: 14px; color: light-dark(rgb(0, 0, 0), rgb(0, 0, 204));&quot;&gt;&lt;font style=&quot;background-color: light-dark(#ffffff, var(--ge-dark-color, #121212));&quot;&gt;&lt;font&gt;&lt;br&gt;&lt;/font&gt;&lt;/font&gt;&lt;/font&gt;" style="text;html=1;align=center;verticalAlign=middle;whiteSpace=wrap;rounded=0;" vertex="1" parent="1">
          <mxGeometry x="1378.7375" y="-810.2439024390244" width="802.525" height="21.30081300813008" as="geometry" />
        </mxCell>
        <mxCell id="J8AIYy-TsQjEeJiYVx7a-33" value="" style="rounded=0;whiteSpace=wrap;html=1;gradientDirection=radial;glass=0;shadow=0;fillStyle=auto;fillColor=light-dark(default, #241f31);strokeColor=none;" vertex="1" parent="1">
          <mxGeometry x="1310" y="-490.73" width="940" height="490.73" as="geometry" />
        </mxCell>
        <mxCell id="J8AIYy-TsQjEeJiYVx7a-77" value="" style="html=1;shadow=0;dashed=0;shape=mxgraph.bootstrap.rrect;rSize=5;strokeColor=#DFDFDF;html=1;whiteSpace=wrap;fillColor=#ffffff;" vertex="1" parent="1">
          <mxGeometry x="1390" y="-440" width="780" height="370" as="geometry" />
        </mxCell>
        <mxCell id="J8AIYy-TsQjEeJiYVx7a-78" value="&lt;b&gt;&lt;font style=&quot;font-size: 20px&quot;&gt;Card title&lt;/font&gt;&lt;/b&gt;&lt;br&gt;&lt;br&gt;This is a wider card with supporting text below as a natural lead-in to additional content. This content is a little bit longer." style="html=1;shadow=0;dashed=0;shape=mxgraph.bootstrap.leftButton;rSize=5;strokeColor=#DFDFDF;html=1;whiteSpace=wrap;fillColor=#ffffff;fontColor=#000000;verticalAlign=top;align=left;spacing=20;spacingBottom=0;fontSize=14;spacingTop=160;" vertex="1" parent="J8AIYy-TsQjEeJiYVx7a-77">
          <mxGeometry width="260" height="370" relative="1" as="geometry" />
        </mxCell>
        <mxCell id="J8AIYy-TsQjEeJiYVx7a-79" value="Image cap" style="html=1;shadow=0;dashed=0;shape=mxgraph.basic.corner_round_rect;dx=2;perimeter=none;whiteSpace=wrap;fillColor=#868E96;strokeColor=#DFDFDF;fontColor=#DEE2E6;resizeWidth=1;fontSize=18;" vertex="1" parent="J8AIYy-TsQjEeJiYVx7a-78">
          <mxGeometry width="260" height="160" relative="1" as="geometry" />
        </mxCell>
        <mxCell id="J8AIYy-TsQjEeJiYVx7a-80" value="Last updated 3 mins ago" style="html=1;shadow=0;dashed=0;shape=mxgraph.basic.corner_round_rect;dx=2;flipV=1;perimeter=none;whiteSpace=wrap;fillColor=#F7F7F7;strokeColor=#DFDFDF;fontColor=#6C767D;resizeWidth=1;fontSize=13;align=left;spacing=20;" vertex="1" parent="J8AIYy-TsQjEeJiYVx7a-78">
          <mxGeometry y="1" width="260" height="50" relative="1" as="geometry">
            <mxPoint y="-50" as="offset" />
          </mxGeometry>
        </mxCell>
        <mxCell id="J8AIYy-TsQjEeJiYVx7a-81" value="&lt;b&gt;&lt;font style=&quot;font-size: 20px&quot;&gt;Card title&lt;/font&gt;&lt;/b&gt;&lt;br&gt;&lt;br&gt;This card has supporting text below as a natural lead-in to additional content." style="html=1;shadow=0;dashed=0;strokeColor=#DFDFDF;html=1;whiteSpace=wrap;fillColor=#ffffff;fontColor=#000000;verticalAlign=top;align=left;spacing=20;spacingBottom=0;fontSize=14;spacingTop=160;" vertex="1" parent="J8AIYy-TsQjEeJiYVx7a-77">
          <mxGeometry width="260" height="370" relative="1" as="geometry">
            <mxPoint x="260" as="offset" />
          </mxGeometry>
        </mxCell>
        <mxCell id="J8AIYy-TsQjEeJiYVx7a-82" value="Image cap" style="html=1;shadow=0;dashed=0;perimeter=none;whiteSpace=wrap;fillColor=#868E96;strokeColor=#DFDFDF;fontColor=#DEE2E6;resizeWidth=1;fontSize=18;" vertex="1" parent="J8AIYy-TsQjEeJiYVx7a-81">
          <mxGeometry width="260" height="160" relative="1" as="geometry" />
        </mxCell>
        <mxCell id="J8AIYy-TsQjEeJiYVx7a-83" value="Last updated 3 mins ago" style="html=1;shadow=0;dashed=0;perimeter=none;whiteSpace=wrap;fillColor=#F7F7F7;strokeColor=#DFDFDF;fontColor=#6C767D;resizeWidth=1;fontSize=13;align=left;spacing=20;" vertex="1" parent="J8AIYy-TsQjEeJiYVx7a-81">
          <mxGeometry y="1" width="260" height="50" relative="1" as="geometry">
            <mxPoint y="-50" as="offset" />
          </mxGeometry>
        </mxCell>
        <mxCell id="J8AIYy-TsQjEeJiYVx7a-84" value="&lt;b&gt;&lt;font style=&quot;font-size: 20px&quot;&gt;Card title&lt;/font&gt;&lt;/b&gt;&lt;br&gt;&lt;br&gt;This is a wider card with supporting text below as a natural lead-in to additional content. This card has even longer content than the first to show that equal height action." style="html=1;shadow=0;dashed=0;shape=mxgraph.bootstrap.rightButton;rSize=5;strokeColor=#DFDFDF;html=1;whiteSpace=wrap;fillColor=#ffffff;fontColor=#000000;verticalAlign=top;align=left;spacing=20;spacingBottom=0;fontSize=14;spacingTop=160;" vertex="1" parent="J8AIYy-TsQjEeJiYVx7a-77">
          <mxGeometry x="1" width="260" height="370" relative="1" as="geometry">
            <mxPoint x="-260" as="offset" />
          </mxGeometry>
        </mxCell>
        <mxCell id="J8AIYy-TsQjEeJiYVx7a-85" value="Image cap" style="html=1;shadow=0;dashed=0;shape=mxgraph.basic.corner_round_rect;dx=2;flipH=1;perimeter=none;whiteSpace=wrap;fillColor=#868E96;strokeColor=#DFDFDF;fontColor=#DEE2E6;resizeWidth=1;fontSize=18;" vertex="1" parent="J8AIYy-TsQjEeJiYVx7a-84">
          <mxGeometry width="260" height="160" relative="1" as="geometry" />
        </mxCell>
        <mxCell id="J8AIYy-TsQjEeJiYVx7a-86" value="Last updated 3 mins ago" style="html=1;shadow=0;dashed=0;shape=mxgraph.basic.corner_round_rect;dx=2;flipV=1;flipH=1;perimeter=none;whiteSpace=wrap;fillColor=#F7F7F7;strokeColor=#DFDFDF;fontColor=#6C767D;resizeWidth=1;fontSize=13;align=left;spacing=20;" vertex="1" parent="J8AIYy-TsQjEeJiYVx7a-84">
          <mxGeometry y="1" width="260" height="50" relative="1" as="geometry">
            <mxPoint y="-50" as="offset" />
          </mxGeometry>
        </mxCell>
        <mxCell id="J8AIYy-TsQjEeJiYVx7a-51" value="" style="rounded=0;whiteSpace=wrap;html=1;gradientDirection=radial;glass=0;shadow=0;fillStyle=auto;strokeColor=none;verticalAlign=bottom;" vertex="1" parent="1">
          <mxGeometry x="1310" y="0.00414634146352455" width="940" height="415.36585365853665" as="geometry" />
        </mxCell>
        <mxCell id="J8AIYy-TsQjEeJiYVx7a-53" value="&lt;div align=&quot;left&quot;&gt;&lt;b&gt;&lt;font style=&quot;font-size: 40px;&quot;&gt;&lt;font&gt;Title&lt;/font&gt;&lt;/font&gt;&lt;/b&gt;&lt;/div&gt;" style="text;html=1;align=left;verticalAlign=middle;whiteSpace=wrap;rounded=0;" vertex="1" parent="1">
          <mxGeometry x="1807.025" y="100.65048780487814" width="387.75" height="63.902439024390254" as="geometry" />
        </mxCell>
        <mxCell id="J8AIYy-TsQjEeJiYVx7a-54" value="&lt;div align=&quot;left&quot;&gt;&lt;font style=&quot;font-size: 27px;&quot;&gt;&lt;font&gt;Subtitle&lt;/font&gt;&lt;/font&gt;&lt;br&gt;&lt;/div&gt;" style="text;html=1;align=left;verticalAlign=middle;whiteSpace=wrap;rounded=0;" vertex="1" parent="1">
          <mxGeometry x="1807.025" y="175.20333333333338" width="387.75" height="30.886178861788622" as="geometry" />
        </mxCell>
        <mxCell id="J8AIYy-TsQjEeJiYVx7a-55" value="&lt;font style=&quot;font-size: 14px;&quot;&gt;Paragraphe Paragraphe Paragraphe Paragraphe Paragraphe Paragraphe Paragraphe Paragraphe Paragraphe Paragraphe Paragraphe Paragraphe Paragraphe Paragraphe Paragraphe &lt;br&gt;&lt;/font&gt;" style="text;html=1;align=left;verticalAlign=middle;whiteSpace=wrap;rounded=0;" vertex="1" parent="1">
          <mxGeometry x="1807.025" y="218.87000000000035" width="364.25" height="74.5528455284553" as="geometry" />
        </mxCell>
        <mxCell id="J8AIYy-TsQjEeJiYVx7a-52" value="" style="rounded=1;whiteSpace=wrap;html=1;strokeWidth=2;fillWeight=4;hachureGap=8;hachureAngle=45;sketch=1;fillColor=light-dark(#FFFFFF,#000000);fillStyle=hachure;strokeColor=none;" vertex="1" parent="1">
          <mxGeometry x="1360.525" y="74.55699186991887" width="403.02500000000003" height="244.95934959349597" as="geometry" />
        </mxCell>
      </root>
    </mxGraphModel>
  </diagram>
</mxfile>
